<?xml version="1.0" encoding="UTF-8" standalone="no"?>
<svg
   xmlns:dc="http://purl.org/dc/elements/1.1/"
   xmlns:cc="http://creativecommons.org/ns#"
   xmlns:rdf="http://www.w3.org/1999/02/22-rdf-syntax-ns#"
   xmlns:svg="http://www.w3.org/2000/svg"
   xmlns="http://www.w3.org/2000/svg"
   xmlns:sodipodi="http://sodipodi.sourceforge.net/DTD/sodipodi-0.dtd"
   xmlns:inkscape="http://www.inkscape.org/namespaces/inkscape"
   viewBox="0 0 3989.3333 1184"
   height="1184"
   width="3989.3333"
   xml:space="preserve"
   id="svg2"
   version="1.1"
   inkscape:version="0.91 r13725"
   sodipodi:docname="logo.svg"><sodipodi:namedview
     pagecolor="#ffffff"
     bordercolor="#666666"
     borderopacity="1"
     objecttolerance="10"
     gridtolerance="10"
     guidetolerance="10"
     inkscape:pageopacity="0"
     inkscape:pageshadow="2"
     inkscape:window-width="1366"
     inkscape:window-height="752"
     id="namedview3396"
     showgrid="false"
     inkscape:zoom="0.29904747"
     inkscape:cx="1994.6666"
     inkscape:cy="592"
     inkscape:window-x="0"
     inkscape:window-y="16"
     inkscape:window-maximized="0"
     inkscape:current-layer="text26" /><metadata
     id="metadata8"><rdf:RDF><cc:Work
         rdf:about=""><dc:format>image/svg+xml</dc:format><dc:type
           rdf:resource="http://purl.org/dc/dcmitype/StillImage" /></cc:Work></rdf:RDF></metadata><defs
     id="defs6"><clipPath
       id="clipPath18"
       clipPathUnits="userSpaceOnUse"><path
         id="path16"
         d="M 0,888 H 2992 V 0 H 0 Z" /></clipPath></defs><g
     transform="matrix(1.3333333,0,0,-1.3333333,0,1184)"
     id="g10"><g
       id="g12"><g
         clip-path="url(#clipPath18)"
         id="g14"><g
           transform="translate(455.4551,335.2197)"
           id="g20"><path
             id="path22"
             style="fill:#1ec6ba;fill-opacity:1;fill-rule:nonzero;stroke:none"
             d="m 0,0 c 0,0 -6.378,-5.788 -8.602,-8.49 -2.223,-2.701 -9.377,-12.159 -25.387,10.259 0,0 -39.543,52.376 -50.951,39.061 -11.407,-13.317 -34.301,-21.89 -60.174,-15.493 0,0 -0.193,-73.005 112.543,-128.213 112.738,-55.211 204.515,-80.79 157.195,-155.811 -47.321,-75.021 -117.147,20.196 -72.062,40.88 0,0 35.289,12.714 12.395,-30.333 0,0 16.727,-12.57 29.233,6.155 12.507,18.722 20.06,46.336 -106.585,99.948 -126.644,53.614 -146.779,105.585 -155.409,171.644 0,0 -36.2,11.621 -21.847,79.494 14.354,67.872 47.209,91.983 52.042,96.711 0,0 -32.62,21.37 -18.584,58.052 14.036,36.683 27.829,19.094 33.427,16.193 5.598,-2.903 36.922,37.722 57.828,-14.345 0,0 2.118,-9.369 -8.515,-20.271 -10.632,-10.902 16.208,-15.852 42.78,1.989 26.573,17.839 -15.652,46.134 17.437,58.695 31.974,12.139 24.284,-3.981 16.247,-15.387 -10.246,-14.539 -7.474,0.315 -0.176,-43.919 0,0 5.591,-10.434 -21.358,-18.811 -26.95,-8.376 -52.358,-21.968 -25.915,-38.795 26.442,-16.826 58.067,34.903 64.93,42.043 6.862,7.14 4.524,-8.434 -10.082,-34.686 0,0 -16.806,-13.09 -33.829,-41.078 -17.02,-27.989 -33.117,4.955 -41.716,0.232 -8.598,-4.724 -62.986,-27.85 -44.067,-37.138 18.918,-9.287 11.314,18.82 63.639,4.384 0,0 16.026,-6.098 28.956,-15.574 0,0 9.092,16.119 15.759,19.203 4.214,1.95 -3.03,-39.848 -7.867,-48.759 -6.225,-11.469 -28.651,32.955 -59.667,12.223 0,0 -12.658,-8.293 3.752,-16.324 16.409,-8.03 21.908,-12.96 29.334,-23.783 C -27.871,39.134 -14.1,-2.305 -6.829,29.266 0.442,60.835 11.046,5.044 0,0" /></g></g></g><g
       transform="matrix(1,0,0,-1,414.5659,321.5537)"
       style="font-variant:normal;font-weight:bold;font-stretch:normal;font-size:500px;font-family:'Source Sans Pro';-inkscape-font-specification:SourceSansPro-Bold;writing-mode:lr-tb;fill:#edeced;fill-opacity:1;fill-rule:nonzero;stroke:none"
       id="text26"><path
         d="m 38.5,0 202.5,0 0,-62 -129,0 0,-264 -73.5,0 0,326 z"
         style=""
         id="path3399" /><path
         d="m 291.5,0 73.5,0 0,-248 -73.5,0 0,248 z M 328,-284.5 c 25,0 42.5,-16 42.5,-38.5 0,-22.5 -17.5,-38 -42.5,-38 -24.5,0 -42.5,15.5 -42.5,38 0,22.5 18,38.5 42.5,38.5 z"
         style=""
         id="path3401" /><path
         d="m 499,0 74,0 0,-264 89.5,0 0,-62 -253,0 0,62 89.5,0 0,264 z"
         style=""
         id="path3403" /><path
         d="m 713.5,0 73.5,0 0,-136 112.5,0 0,136 74,0 0,-326 -74,0 0,125.5 -112.5,0 0,-125.5 -73.5,0 0,326 z"
         style=""
         id="path3405" /><path
         d="m 1155.5,6 c 29.5,0 62.5,-10.5 88,-28 L 1219,-66.5 c -18,11 -35,16.5 -53.5,16.5 -33,0 -58,-16.5 -64.5,-52.5 l 148.5,0 c 1.5,-6 3,-19.5 3,-32.5 0,-67.5 -35,-119 -105.5,-119 -59.5,0 -117,49.5 -117,130 0,82 54.5,130 125.5,130 z m -55,-157 c 5,-31.5 25,-47 48,-47 29.5,0 41.5,19.5 41.5,47 l -89.5,0 z"
         style=""
         id="path3407" /><path
         d="m 1407.5,0 71.5,0 0,-61 31.5,-35.5 56,96.5 79.5,0 -93.5,-146 87,-102 -80,0 -78.5,98.5 -2,0 0,-201 -71.5,0 0,350.5 z"
         style=""
         id="path3409" /><path
         d="m 1773.95,6 c 62.5,0 120.5,-47.5 120.5,-130 0,-82.5 -58,-130 -120.5,-130 -63,0 -121,47.5 -121,130 0,82.5 58,130 121,130 z m 0,-59.5 c -30.5,0 -45.5,-27.5 -45.5,-70.5 0,-43 15,-70.5 45.5,-70.5 30,0 45.5,27.5 45.5,70.5 0,43 -15.5,70.5 -45.5,70.5 z"
         style=""
         id="path3411" /><path
         d="m 2033.45,6 c 24,0 48.5,-13 66,-30.5 l 2,0 5,24.5 60,0 0,-350.5 -73.5,0 0,84.5 3,38 c -17,-16 -33.5,-26 -61,-26 -52.5,0 -103,49 -103,130 0,81 40,130 101.5,130 z m 19,-60 c -28.5,0 -45,-22 -45,-71 0,-47 21,-69 44.5,-69 13.5,0 28,4 41,16 l 0,101.5 c -12,16.5 -24.5,22.5 -40.5,22.5 z"
         style=""
         id="path3413" /></g></g></svg>