<?xml version="1.0" encoding="UTF-8" standalone="no"?>
<svg
   xmlns:dc="http://purl.org/dc/elements/1.1/"
   xmlns:cc="http://creativecommons.org/ns#"
   xmlns:rdf="http://www.w3.org/1999/02/22-rdf-syntax-ns#"
   xmlns:svg="http://www.w3.org/2000/svg"
   xmlns="http://www.w3.org/2000/svg"
   viewBox="0 0 5319.1069 1578.6667"
   height="1578.6667"
   width="5319.1069"
   xml:space="preserve"
   id="svg2"
   version="1.1"><metadata
     id="metadata8"><rdf:RDF><cc:Work
         rdf:about=""><dc:format>image/svg+xml</dc:format><dc:type
           rdf:resource="http://purl.org/dc/dcmitype/StillImage" /></cc:Work></rdf:RDF></metadata><defs
     id="defs6"><clipPath
       id="clipPath18"
       clipPathUnits="userSpaceOnUse"><path
         id="path16"
         d="M 0,0 H 3989.333 V 1184 H 0 Z" /></clipPath><clipPath
       id="clipPath32"
       clipPathUnits="userSpaceOnUse"><path
         id="path30"
         d="M 0,1184 H 3989.333 V 0 H 0 Z" /></clipPath><clipPath
       id="clipPath40"
       clipPathUnits="userSpaceOnUse"><path
         id="path38"
         d="M 552.754,1000.68 H 3509.91 V 177.762 H 552.754 Z" /></clipPath><clipPath
       id="clipPath44"
       clipPathUnits="userSpaceOnUse"><path
         id="path42"
         d="M 552.754,1000.68 H 947.937 V 177.762 H 552.754 Z" /></clipPath><clipPath
       id="clipPath48"
       clipPathUnits="userSpaceOnUse"><path
         id="path46"
         d="M 898.087,1000.68 H 1083.31 V 177.762 H 898.087 Z" /></clipPath><clipPath
       id="clipPath52"
       clipPathUnits="userSpaceOnUse"><path
         id="path50"
         d="m 1082.09,1000.68 h 407.22 V 177.762 h -407.22 z" /></clipPath><clipPath
       id="clipPath56"
       clipPathUnits="userSpaceOnUse"><path
         id="path54"
         d="M 1452.75,1000.68 H 1934.2 V 177.762 h -481.45 z" /></clipPath><clipPath
       id="clipPath60"
       clipPathUnits="userSpaceOnUse"><path
         id="path58"
         d="m 1902.09,1000.68 h 370.77 V 177.762 h -370.77 z" /></clipPath><clipPath
       id="clipPath64"
       clipPathUnits="userSpaceOnUse"><path
         id="path62"
         d="m 2247.42,1000.68 h 185.22 V 177.762 h -185.22 z" /></clipPath><clipPath
       id="clipPath68"
       clipPathUnits="userSpaceOnUse"><path
         id="path66"
         d="m 2386.09,1000.68 h 370.77 V 177.762 h -370.77 z" /></clipPath><clipPath
       id="clipPath72"
       clipPathUnits="userSpaceOnUse"><path
         id="path70"
         d="m 2732.69,1000.68 h 407.22 V 177.762 h -407.22 z" /></clipPath><clipPath
       id="clipPath76"
       clipPathUnits="userSpaceOnUse"><path
         id="path74"
         d="m 3102.69,1000.68 h 407.22 V 177.762 h -407.22 z" /></clipPath></defs><g
     transform="matrix(1.3333333,0,0,-1.3333333,0,1578.6667)"
     id="g10"><g
       id="g12"><g
         clip-path="url(#clipPath18)"
         id="g14"><path
           id="path20"
           style="fill:none;stroke:#000000;stroke-width:1;stroke-linecap:butt;stroke-linejoin:miter;stroke-miterlimit:10;stroke-dasharray:none;stroke-opacity:1"
           d="M 3989.333,0 H 0 v 1184 h 3989.333 z" /><g
           transform="translate(607.2734,446.96)"
           id="g22"><path
             id="path24"
             style="fill:#1ec6ba;fill-opacity:1;fill-rule:nonzero;stroke:none"
             d="m 0,0 c 0,0 -8.504,-7.718 -11.47,-11.32 -2.964,-3.602 -12.502,-16.212 -33.848,13.678 0,0 -52.725,69.835 -67.935,52.081 -15.21,-17.755 -45.735,-29.186 -80.232,-20.657 0,0 -0.257,-97.34 150.057,-170.95 150.318,-73.615 272.687,-107.721 209.593,-207.748 -63.095,-100.028 -156.195,26.928 -96.082,54.506 0,0 47.052,16.952 16.526,-40.444 0,0 22.303,-16.759 38.978,8.207 16.676,24.962 26.746,61.781 -142.113,133.264 -168.86,71.486 -195.706,140.779 -207.212,228.859 0,0 -48.267,15.495 -29.13,105.992 19.139,90.496 62.945,122.643 69.389,128.948 0,0 -43.493,28.493 -24.778,77.402 18.714,48.911 37.105,25.459 44.57,21.591 7.463,-3.871 49.228,50.296 77.103,-19.127 0,0 2.824,-12.492 -11.354,-27.028 -14.175,-14.536 21.612,-21.136 57.041,2.652 35.43,23.785 -20.87,61.512 23.249,78.26 42.632,16.186 32.378,-5.308 21.663,-20.516 -13.661,-19.385 -9.965,0.42 -0.235,-58.558 0,0 7.454,-13.912 -28.477,-25.082 -35.934,-11.168 -69.811,-29.29 -34.554,-51.727 35.257,-22.434 77.423,46.538 86.573,56.058 9.15,9.52 6.032,-11.245 -13.442,-46.248 0,0 -22.408,-17.453 -45.106,-54.771 -22.693,-37.318 -44.155,6.607 -55.621,0.31 -11.464,-6.299 -83.981,-37.134 -58.756,-49.518 25.224,-12.383 15.085,25.094 84.852,5.846 0,0 21.368,-8.131 38.608,-20.766 0,0 12.123,21.493 21.012,25.604 5.619,2.6 -4.04,-53.13 -10.489,-65.012 -8.3,-15.292 -38.201,43.941 -79.556,16.298 0,0 -16.878,-11.058 5.003,-21.766 21.878,-10.707 29.21,-17.28 39.111,-31.711 C -37.161,52.179 -18.8,-3.073 -9.105,39.021 0.59,81.113 14.729,6.725 0,0" /></g></g></g><g
       id="g26"><g
         clip-path="url(#clipPath32)"
         id="g28"><g
           id="g34"><g
             id="g36" /><g
             id="g184"><g
               id="g182"
               clip-path="url(#clipPath40)"><g
                 id="g88"><g
                   id="g78" /><g
                   id="g86"><g
                     id="g84"
                     clip-path="url(#clipPath44)"><text
                       id="text82"
                       style="font-variant:normal;font-weight:bold;font-stretch:normal;font-size:666.66662598px;font-family:Arial;-inkscape-font-specification:Arial-BoldMT;writing-mode:lr-tb;fill:#edeced;fill-opacity:1;fill-rule:nonzero;stroke:none"
                       transform="matrix(1,0,0,-1,552.7544,428.7383)"><tspan
                         id="tspan80"
                         y="0"
                         x="0">L</tspan></text>
</g></g></g><g
                 id="g100"><g
                   id="g90" /><g
                   id="g98"><g
                     id="g96"
                     clip-path="url(#clipPath48)"><text
                       id="text94"
                       style="font-variant:normal;font-weight:bold;font-stretch:normal;font-size:666.66662598px;font-family:Arial;-inkscape-font-specification:Arial-BoldMT;writing-mode:lr-tb;fill:#edeced;fill-opacity:1;fill-rule:nonzero;stroke:none"
                       transform="matrix(1,0,0,-1,898.0874,428.7383)"><tspan
                         id="tspan92"
                         y="0"
                         x="0">i</tspan></text>
</g></g></g><g
                 id="g112"><g
                   id="g102" /><g
                   id="g110"><g
                     id="g108"
                     clip-path="url(#clipPath52)"><text
                       id="text106"
                       style="font-variant:normal;font-weight:bold;font-stretch:normal;font-size:666.66662598px;font-family:Arial;-inkscape-font-specification:Arial-BoldMT;writing-mode:lr-tb;fill:#edeced;fill-opacity:1;fill-rule:nonzero;stroke:none"
                       transform="matrix(1,0,0,-1,1082.0874,428.7383)"><tspan
                         id="tspan104"
                         y="0"
                         x="0">T</tspan></text>
</g></g></g><g
                 id="g124"><g
                   id="g114" /><g
                   id="g122"><g
                     id="g120"
                     clip-path="url(#clipPath56)"><text
                       id="text118"
                       style="font-variant:normal;font-weight:bold;font-stretch:normal;font-size:666.66662598px;font-family:Arial;-inkscape-font-specification:Arial-BoldMT;writing-mode:lr-tb;fill:#edeced;fill-opacity:1;fill-rule:nonzero;stroke:none"
                       transform="matrix(1,0,0,-1,1452.7534,428.7383)"><tspan
                         id="tspan116"
                         y="0"
                         x="0">H</tspan></text>
</g></g></g><g
                 id="g136"><g
                   id="g126" /><g
                   id="g134"><g
                     id="g132"
                     clip-path="url(#clipPath60)"><text
                       id="text130"
                       style="font-variant:normal;font-weight:bold;font-stretch:normal;font-size:666.66662598px;font-family:Arial;-inkscape-font-specification:Arial-BoldMT;writing-mode:lr-tb;fill:#edeced;fill-opacity:1;fill-rule:nonzero;stroke:none"
                       transform="matrix(1,0,0,-1,1902.0874,428.7383)"><tspan
                         id="tspan128"
                         y="0"
                         x="0">e</tspan></text>
</g></g></g><g
                 id="g144"><g
                   id="g138" /><g
                   id="g142"><g
                     id="g140"
                     clip-path="url(#clipPath64)" /></g></g><g
                 id="g156"><g
                   id="g146" /><g
                   id="g154"><g
                     id="g152"
                     clip-path="url(#clipPath68)"><text
                       id="text150"
                       style="font-variant:normal;font-weight:bold;font-stretch:normal;font-size:666.66662598px;font-family:Arial;-inkscape-font-specification:Arial-BoldMT;writing-mode:lr-tb;fill:#edeced;fill-opacity:1;fill-rule:nonzero;stroke:none"
                       transform="matrix(1,0,0,-1,2386.0874,428.7383)"><tspan
                         id="tspan148"
                         y="0"
                         x="0">k</tspan></text>
</g></g></g><g
                 id="g168"><g
                   id="g158" /><g
                   id="g166"><g
                     id="g164"
                     clip-path="url(#clipPath72)"><text
                       id="text162"
                       style="font-variant:normal;font-weight:bold;font-stretch:normal;font-size:666.66662598px;font-family:Arial;-inkscape-font-specification:Arial-BoldMT;writing-mode:lr-tb;fill:#edeced;fill-opacity:1;fill-rule:nonzero;stroke:none"
                       transform="matrix(1,0,0,-1,2732.687,428.7383)"><tspan
                         id="tspan160"
                         y="0"
                         x="0">o</tspan></text>
</g></g></g><g
                 id="g180"><g
                   id="g170" /><g
                   id="g178"><g
                     id="g176"
                     clip-path="url(#clipPath76)"><text
                       id="text174"
                       style="font-variant:normal;font-weight:bold;font-stretch:normal;font-size:666.66662598px;font-family:Arial;-inkscape-font-specification:Arial-BoldMT;writing-mode:lr-tb;fill:#edeced;fill-opacity:1;fill-rule:nonzero;stroke:none"
                       transform="matrix(1,0,0,-1,3102.687,428.7383)"><tspan
                         id="tspan172"
                         y="0"
                         x="0">d</tspan></text>
</g></g></g></g></g></g></g></g></g></svg>